<svg xmlns="http://www.w3.org/2000/svg" width="16.23" height="16.23" viewBox="0 0 16.23 16.23"><defs><style>.a{fill:#071282;}.b,.c{stroke:none;}.c{fill:#fff;}</style></defs><g transform="translate(-82.876 -316.876)"><g class="a"><path class="b" d="M 97.02194213867188 332.3986511230469 L 96.66838836669922 332.0450744628906 L 90.99076843261719 326.367431640625 L 85.31315612792969 332.0450744628906 L 84.95960998535156 332.3986511230469 L 84.60605621337891 332.0451049804688 L 83.93643188476562 331.37548828125 L 83.58287048339844 331.0219116210938 L 83.93643188476562 330.6683654785156 L 89.61407470703125 324.9907836914062 L 83.93643188476562 319.3131103515625 L 83.58285522460938 318.9595642089844 L 83.93643951416016 318.6059875488281 L 84.60607147216797 317.9364013671875 L 84.95961761474609 317.5828857421875 L 85.31315612792969 317.9364318847656 L 90.99076843261719 323.6140441894531 L 96.66838836669922 317.9364318847656 L 97.02192687988281 317.5828857421875 L 97.37548065185547 317.9364318847656 L 98.04509735107422 318.6060180664062 L 98.398681640625 318.9595642089844 L 98.04510498046875 319.3131103515625 L 92.36747741699219 324.9907836914062 L 98.04510498046875 330.6683654785156 L 98.39866638183594 331.0219116210938 L 98.04510498046875 331.3754577636719 L 97.37548828125 332.0450744628906 L 97.02194213867188 332.3986511230469 Z"/><path class="c" d="M 97.02194213867188 331.6915283203125 L 97.69155883789062 331.0219116210938 L 91.66036987304688 324.9907836914062 L 97.69155883789062 318.9595642089844 L 97.02194213867188 318.2899780273438 L 90.99076843261719 324.3211364746094 L 84.95960998535156 318.2899780273438 L 84.28997802734375 318.9595642089844 L 90.32117462158203 324.9907836914062 L 84.28997802734375 331.0219116210938 L 84.95960998535156 331.6915283203125 L 90.99076843261719 325.6603393554688 L 97.02194213867188 331.6915283203125 M 97.02194213867188 333.1057434082031 L 90.99076843261719 327.0745544433594 L 84.95961761474609 333.1057434082031 L 82.87575531005859 331.0219116210938 L 88.90695953369141 324.9907836914062 L 82.87574005126953 318.9595336914062 L 84.95964050292969 316.8757934570312 L 90.99076843261719 322.9069213867188 L 97.02191925048828 316.8757934570312 L 99.10578918457031 318.9595336914062 L 93.0745849609375 324.9907836914062 L 99.10578155517578 331.0219116210938 L 97.02194213867188 333.1057434082031 Z"/></g></g></svg>