<svg xmlns="http://www.w3.org/2000/svg" xmlns:xlink="http://www.w3.org/1999/xlink" width="360" height="300" viewBox="0 0 360 300">
  <defs>
    <clipPath id="clip-path">
      <rect id="Rectangle_201" data-name="Rectangle 201" width="360" height="300" transform="translate(360 640) rotate(180)" fill="#fff"/>
    </clipPath>
  </defs>
  <g id="Mask_Group_30" data-name="Mask Group 30" transform="translate(0 -340)" opacity="0.1" clip-path="url(#clip-path)" style="mix-blend-mode: normal;isolation: isolate">
    <path id="logo-form" d="M302.124,256.452c-1.544-24.181-20.871-34.358-36.279-34.878s-33.651,7.007-33.651,7.007l-23.372,9.17S91.57,284.291,75.546,290.948c-11.725,4.93-24.369,15.425-28.072,29.842a40.107,40.107,0,0,0,.694,22.188l.362,1.06c.313.891.655,1.8.977,2.724l.362.869c.518,1.219,1.1,2.449,1.749,3.7.156.286.293.573.42.859A58.255,58.255,0,0,0,63.762,367.34l.235.2c2.286,2.29,3.85,3.573,3.85,3.573S157.075,445,166,452.17s24.9,17.025,41.5,12.011,22.59-21.849,22.59-21.849,58.411-137.92,66.1-156.26,5.863-29.683,5.863-29.683" transform="translate(-76.236 156.451)" fill="#fff"/>
    <path id="logo-form-2" data-name="logo-form" d="M214.163,247.011c-1.013-17.64-13.7-25.065-23.808-25.444s-22.084,5.112-22.084,5.112l-15.338,6.69s-76.946,33.95-87.462,38.807c-7.695,3.6-15.992,11.252-18.422,21.77a32.4,32.4,0,0,0,.455,16.186l.237.773c.205.65.43,1.315.641,1.988l.237.634c.34.889.725,1.786,1.148,2.7.1.209.192.418.276.626A42.245,42.245,0,0,0,57.737,327.9l.154.147c1.5,1.671,2.526,2.606,2.526,2.606s58.556,53.9,64.41,59.131,16.338,12.42,27.233,8.762,14.825-15.939,14.825-15.939S205.218,282,210.264,268.619s3.847-21.654,3.847-21.654" transform="matrix(-0.999, -0.035, 0.035, -0.999, 387.318, 825.905)" fill="#fff"/>
    <path id="logo-form-3" data-name="logo-form" d="M119.012,109.287c-.718,12.639-9.707,17.958-16.873,18.229s-15.651-3.662-15.651-3.662l-10.87-4.793s-54.533-24.324-61.986-27.8C8.179,88.681,2.3,83.2.576,75.66A23.454,23.454,0,0,1,.9,64.063l.168-.554c.145-.465.3-.942.454-1.424l.168-.454c.241-.637.514-1.28.813-1.934.073-.15.136-.3.2-.449A30.274,30.274,0,0,1,8.151,51.33l.109-.105c1.063-1.2,1.79-1.867,1.79-1.867S51.55,10.738,55.7,6.993,67.279-1.906,75,.715s10.507,11.42,10.507,11.42,27.166,72.086,30.743,81.671,2.727,15.514,2.727,15.514" transform="translate(166.966 764.026) rotate(-133)" fill="#fff"/>
  </g>
</svg>
