<svg xmlns="http://www.w3.org/2000/svg" width="13.115" height="13.1" viewBox="0 0 13.115 13.1">
  <g id="edit-icon" transform="translate(0.049 -0.029)">
    <path id="Path_122" data-name="Path 122" d="M131.286,285.061l-.631,3.036a.262.262,0,0,0,.306.306l3.035-.631.132-.073,6.53-6.528a.131.131,0,0,0,0-.184l-2.595-2.595a.131.131,0,0,0-.186,0l-6.528,6.528Z" transform="translate(-130.7 -275.278)" fill="#78909c"/>
    <path id="Path_123" data-name="Path 123" d="M190.15,261.074l-1.854-1.852a.654.654,0,0,0-.927,0L186,260.59a.189.189,0,0,0,0,.265l2.522,2.514a.189.189,0,0,0,.265,0L190.156,262A.656.656,0,0,0,190.15,261.074Z" transform="translate(-177.279 -259)" fill="#78909c"/>
  </g>
</svg>
