<svg id="email-icon" xmlns="http://www.w3.org/2000/svg" width="15.975" height="12.005" viewBox="0 0 15.975 12.005">
  <path id="Path_15" data-name="Path 15" d="M76.777,193.79l6.668-5.011a3.208,3.208,0,0,0-1.909-.629H72.019a3.207,3.207,0,0,0-1.909.633Z" transform="translate(-68.79 -188.15)" fill="#fff"/>
  <path id="Path_16" data-name="Path 16" d="M57.547,220.812l-7.615-5.722a3.207,3.207,0,0,0-.372,1.5v5.543a3.239,3.239,0,0,0,3.23,3.23h9.516a3.239,3.239,0,0,0,3.23-3.23v-5.543a3.2,3.2,0,0,0-.373-1.5Z" transform="translate(-49.56 -213.359)" fill="#fff"/>
</svg>
