<svg xmlns="http://www.w3.org/2000/svg" width="145.035" height="51.186" viewBox="0 0 145.035 51.186">
  <path id="location-tag" d="M296.031,277.732H184.063a16.468,16.468,0,0,0-16.825,14.059,15.323,15.323,0,0,0,4.155,11.983,16.592,16.592,0,0,0,11.984,5.152H223.32a9.6,9.6,0,0,1,8.543,5.084l7.662,14.906,7.63-14.906a9.6,9.6,0,0,1,8.543-5.084h39.616a16.466,16.466,0,0,0,16.825-14.09,15.324,15.324,0,0,0-4.158-11.951A16.592,16.592,0,0,0,296.031,277.732Z" transform="translate(-167.169 -277.729)" fill="#3d3dd9"/>
</svg>
