<svg xmlns="http://www.w3.org/2000/svg" width="26.829" height="15.429" viewBox="0 0 26.829 15.429">
  <g id="location-point" transform="translate(0)">
    <path id="Path_98" data-name="Path 98" d="M193.525,471.264a5.46,5.46,0,0,1-4.926,0,1.508,1.508,0,0,1,0-2.845,5.46,5.46,0,0,1,4.926,0,1.489,1.489,0,0,1,0,2.845Z" transform="translate(-177.648 -462.12)"/>
    <path id="Path_99" data-name="Path 99" d="M195.8,480.265a19.091,19.091,0,0,1-9.355-2.234,5.727,5.727,0,0,1,0-10.959,20.714,20.714,0,0,1,18.71,0,5.727,5.727,0,0,1,0,10.958h0a19.091,19.091,0,0,1-9.355,2.234Zm0-15.14a18.957,18.957,0,0,0-9.2,2.2,5.518,5.518,0,0,0,0,10.462,20.352,20.352,0,0,0,18.423,0h0a5.517,5.517,0,0,0,0-10.462,19.091,19.091,0,0,0-9.221-2.176Z" transform="translate(-182.384 -464.841)"/>
  </g>
</svg>
