<svg xmlns="http://www.w3.org/2000/svg" xmlns:xlink="http://www.w3.org/1999/xlink" width="505" height="421" viewBox="0 0 505 421">
  <defs>
    <clipPath id="clip-path">
      <path id="Rectangle_25" data-name="Rectangle 25" d="M0,0H505a0,0,0,0,1,0,0V381a40,40,0,0,1-40,40H40A40,40,0,0,1,0,381V0A0,0,0,0,1,0,0Z" transform="translate(505 761) rotate(180)" fill="#2e2e80"/>
    </clipPath>
  </defs>
  <g id="Mask_Group_6" data-name="Mask Group 6" transform="translate(0 -340)" clip-path="url(#clip-path)">
    <path id="logo-form" d="M405.333,270.53c-2.166-33.934-29.289-48.216-50.912-48.945s-47.224,9.834-47.224,9.834l-32.8,12.868S109.855,309.6,87.368,318.94c-16.454,6.918-34.2,21.646-39.394,41.878a56.284,56.284,0,0,0,.974,31.137l.507,1.488c.439,1.25.919,2.529,1.371,3.823l.507,1.22c.727,1.711,1.549,3.437,2.454,5.192.219.4.411.8.59,1.205a81.752,81.752,0,0,0,16.454,21.259l.329.283c3.209,3.213,5.4,5.014,5.4,5.014S201.78,535.13,214.3,545.187s34.938,23.892,58.234,16.856,31.7-30.661,31.7-30.661S386.2,337.833,397,312.1s8.227-41.655,8.227-41.655" transform="translate(-88.336 171.778)" fill="#3d3dd9" opacity="0.4"/>
    <path id="logo-form-2" data-name="logo-form" d="M235.658,35.732C234.236,10.977,216.437.558,202.246.026S171.256,7.2,171.256,7.2l-21.524,9.388S41.75,64.231,26.993,71.047C16.195,76.094,4.551,86.838,1.14,101.6a45.46,45.46,0,0,0,.639,22.715l.333,1.085c.288.912.6,1.845.9,2.789l.333.89c.477,1.248,1.017,2.507,1.611,3.788.144.293.27.586.387.879a59.285,59.285,0,0,0,10.8,15.509l.216.206c2.106,2.344,3.545,3.657,3.545,3.657s82.174,75.644,90.389,82.981,22.928,17.43,38.216,12.3,20.8-22.368,20.8-22.368S223.1,84.83,230.187,66.055s5.4-30.388,5.4-30.388" transform="matrix(-0.999, -0.035, 0.035, -0.999, 489.543, 708.905)" fill="#3d3dd9" opacity="0.3"/>
    <path id="logo-form-3" data-name="logo-form" d="M167.014,153.366c-1.008,17.736-13.622,25.2-23.679,25.582s-21.963-5.14-21.963-5.14l-15.255-6.726S29.589,132.947,19.13,128.064C11.477,124.448,3.225,116.751.808,106.176A32.914,32.914,0,0,1,1.261,89.9l.236-.778c.2-.653.427-1.322.638-2l.236-.638c.338-.894.721-1.8,1.142-2.714.1-.21.191-.42.274-.63a42.484,42.484,0,0,1,7.653-11.111l.153-.148c1.492-1.68,2.513-2.62,2.513-2.62s58.238-54.2,64.06-59.452S94.414-2.675,105.249,1s14.744,16.025,14.744,16.025,38.124,101.16,43.143,114.612,3.826,21.772,3.826,21.772" transform="translate(234.309 935.05) rotate(-133)" fill="#3d3dd9" opacity="0.2"/>
  </g>
</svg>
