<svg xmlns="http://www.w3.org/2000/svg" xmlns:xlink="http://www.w3.org/1999/xlink" width="536" height="118.412" viewBox="0 0 536 118.412">
  <defs>
    <clipPath id="clip-path">
      <path id="Rectangle_169" data-name="Rectangle 169" d="M0,0H536a0,0,0,0,1,0,0V98.412a20,20,0,0,1-20,20H20a20,20,0,0,1-20-20V0A0,0,0,0,1,0,0Z" fill="#2e2e80"/>
    </clipPath>
  </defs>
  <g id="Mask_Group_24" data-name="Mask Group 24" opacity="0.8" clip-path="url(#clip-path)">
    <g id="Group_71" data-name="Group 71" transform="translate(320.146 -22.518)">
      <path id="logo-form" d="M46.314,239.608C47.4,227.1,60.93,221.831,71.721,221.562s23.567,3.626,23.567,3.626l16.368,4.745s82.114,24.08,93.337,27.524c8.211,2.551,17.066,7.981,19.66,15.44a15.6,15.6,0,0,1-.486,11.48l-.253.549c-.219.461-.458.932-.684,1.41l-.253.45c-.363.631-.773,1.267-1.225,1.914-.109.148-.205.3-.294.444a33.459,33.459,0,0,1-8.211,7.838l-.164.1c-1.6,1.185-2.7,1.849-2.7,1.849s-62.489,38.231-68.737,41.939-17.436,8.809-29.062,6.215-15.821-11.3-15.821-11.3-40.907-71.361-46.292-80.85-4.106-15.358-4.106-15.358" transform="translate(43.497 -221.549)" fill="#3d3dd9" opacity="0.4"/>
      <path id="logo-form-2" data-name="logo-form" d="M117.913,79.394c-.6,9.125-9.429,12.887-16.506,13.018s-15.493-2.787-15.493-2.787L75.133,86.065S21.046,68,13.652,65.419C8.242,63.509,2.384,59.493.616,54.033a12.547,12.547,0,0,1,.215-8.376l.161-.4c.14-.335.292-.678.436-1.025l.162-.327c.232-.458.5-.92.786-1.39.07-.107.132-.215.189-.323a22.457,22.457,0,0,1,5.317-5.671l.107-.075c1.04-.855,1.752-1.333,1.752-1.333S50.393,7.587,54.458,4.918,65.818-1.407,73.468.556A16.339,16.339,0,0,1,83.949,8.9s27.478,52.325,31.1,59.283,2.832,11.233,2.832,11.233" transform="matrix(0.999, -0.035, 0.035, 0.999, 0, 24.924)" fill="#3d3dd9" opacity="0.3"/>
      <path id="logo-form-3" data-name="logo-form" d="M68.325,12.984C66.74,5.143,60.839,1.05,56.5.229a20.467,20.467,0,0,0-9.1.825L41.289,3.012S10.653,13,6.48,14.462A9.636,9.636,0,0,0,.037,22.867,15.894,15.894,0,0,0,1.29,30.032l.152.356c.13.3.269.607.4.918l.143.295q.3.621.667,1.264c.057.1.109.2.159.294a28.2,28.2,0,0,0,4.008,5.369L6.9,38.6c.75.833,1.249,1.312,1.249,1.312s28.526,27.547,31.368,30.23,7.788,6.531,12.2,5.623S57,69.7,57,69.7s9.79-41.872,11.071-47.443a20.384,20.384,0,0,0,.227-9.3" transform="translate(75.849 157.248) rotate(-47)" fill="#3d3dd9" opacity="0.2"/>
    </g>
  </g>
</svg>
