<svg xmlns="http://www.w3.org/2000/svg" xmlns:xlink="http://www.w3.org/1999/xlink" width="367" height="268" viewBox="0 0 367 268">
  <defs>
    <clipPath id="clip-path">
      <rect id="Rectangle_8" data-name="Rectangle 8" width="367" height="268" transform="translate(0 73)" fill="#fff"/>
    </clipPath>
  </defs>
  <g id="Mask_Group_1" data-name="Mask Group 1" transform="translate(0 -73)" clip-path="url(#clip-path)">
    <path id="logo-form" d="M303.886,265.63c-1.539-22.223-20.81-31.576-36.174-32.053s-33.553,6.44-33.553,6.44l-23.3,8.427S93.944,291.214,77.966,297.332c-11.691,4.53-24.3,14.175-27.99,27.425a34.1,34.1,0,0,0,.692,20.391l.36.974c.312.818.653,1.656.974,2.5l.36.8c.516,1.12,1.1,2.251,1.744,3.4.156.263.292.526.419.789a54.354,54.354,0,0,0,11.691,13.922l.234.185c2.28,2.1,3.839,3.283,3.839,3.283s88.969,67.906,97.864,74.492,24.824,15.646,41.377,11.038,22.525-20.079,22.525-20.079S290.3,309.705,297.962,292.851s5.846-27.279,5.846-27.279" transform="translate(-81.577 -121.821)" fill="#3d3dd9" opacity="0.1"/>
  </g>
</svg>
