<svg xmlns="http://www.w3.org/2000/svg" xmlns:xlink="http://www.w3.org/1999/xlink" width="736" height="425" viewBox="0 0 736 425">
  <defs>
    <clipPath id="clip-path">
      <rect id="Rectangle_85" data-name="Rectangle 85" width="736" height="425" transform="translate(0 0.244)" fill="#2e2e80"/>
    </clipPath>
  </defs>
  <g id="Mask_Group_20" data-name="Mask Group 20" transform="translate(0 -0.244)" opacity="0.2" clip-path="url(#clip-path)">
    <g id="Group_31" data-name="Group 31" transform="translate(292.355 65.422)">
      <path id="logo-form" d="M383.721,267.582c-2.036-31.892-27.526-45.314-47.848-46s-44.382,9.242-44.382,9.242l-30.825,12.094S106.026,304.3,84.892,313.078c-15.464,6.5-32.139,20.343-37.023,39.358a52.9,52.9,0,0,0,.915,29.263l.477,1.4c.412,1.174.863,2.377,1.289,3.593l.477,1.146c.683,1.608,1.456,3.23,2.307,4.879.206.378.387.755.554,1.133a76.833,76.833,0,0,0,15.464,19.979l.309.266c3.015,3.02,5.077,4.712,5.077,4.712s117.681,97.451,129.446,106.9,32.835,22.454,54.73,15.841,29.794-28.816,29.794-28.816,77.036-181.9,87.178-206.088,7.732-39.148,7.732-39.148" transform="translate(-46.236 -221.549)" fill="#3d3dd9" opacity="0.3"/>
      <path id="logo-form-2" data-name="logo-form" d="M221.475,33.582C220.139,10.316,203.411.525,190.074.025s-29.125,6.742-29.125,6.742L140.72,15.589S39.238,60.366,25.368,66.771C15.22,71.514,4.277,81.612,1.072,95.483a42.724,42.724,0,0,0,.6,21.348l.313,1.02c.271.857.567,1.734.846,2.621l.313.836c.448,1.173.956,2.356,1.514,3.56.135.275.254.551.364.826A55.715,55.715,0,0,0,15.169,140.27l.2.194c1.979,2.2,3.332,3.437,3.332,3.437s77.228,71.091,84.949,77.986,21.548,16.381,35.916,11.556,19.552-21.021,19.552-21.021,50.555-132.7,57.211-150.343,5.074-28.559,5.074-28.559" transform="matrix(-0.999, -0.035, 0.035, -0.999, 499.646, 296.585)" fill="#3d3dd9" opacity="0.3"/>
      <path id="logo-form-3" data-name="logo-form" d="M156.962,144.136c-.947,16.669-12.8,23.684-22.254,24.042s-20.642-4.83-20.642-4.83L99.73,157.026s-71.922-32.08-81.751-36.67C10.787,116.959,3.031,109.724.76,99.786a30.933,30.933,0,0,1,.426-15.295l.222-.731c.192-.614.4-1.242.6-1.878l.222-.6c.318-.84.677-1.688,1.073-2.55.1-.2.18-.395.258-.592A39.928,39.928,0,0,1,10.751,67.7l.144-.139c1.4-1.579,2.361-2.463,2.361-2.463s54.733-50.934,60.2-55.874S88.732-2.514,98.915.943,112.772,16,112.772,16s35.829,95.072,40.546,107.714,3.6,20.461,3.6,20.461" transform="translate(259.774 509.121) rotate(-133)" fill="#3d3dd9" opacity="0.3"/>
    </g>
  </g>
</svg>
