<svg xmlns="http://www.w3.org/2000/svg" width="17.265" height="16.256" viewBox="0 0 17.265 16.256">
  <path id="message-icon" d="M153.943,273h-.625a7.977,7.977,0,0,0-7.96,7.96,7.891,7.891,0,0,0,1.1,4.024,1.27,1.27,0,0,1,.082,1.167,9.969,9.969,0,0,1-1.872,2.887.132.132,0,0,0,.113.218,14.42,14.42,0,0,0,4.158-1.051,1.263,1.263,0,0,1,1.086,0,7.909,7.909,0,0,0,3.292.716h.625a7.959,7.959,0,1,0,0-15.918Zm-3.438,9.059a1.128,1.128,0,1,1,1.128-1.128A1.128,1.128,0,0,1,150.5,282.059Zm3.2,0a1.128,1.128,0,1,1,1.128-1.128A1.128,1.128,0,0,1,153.7,282.059Zm3.2,0a1.128,1.128,0,1,1,1.128-1.128A1.128,1.128,0,0,1,156.9,282.059Z" transform="translate(-144.636 -273)" fill="#3d3dd9"/>
</svg>
