<svg id="rmz-logo" xmlns="http://www.w3.org/2000/svg" width="111.605" height="112.726" viewBox="0 0 111.605 112.726">
  <path id="Path_1" data-name="Path 1" d="M193.8,152.617s-23.7,51.637-25.613,55.634-3.815,6.612-8.708,6.99a12.409,12.409,0,0,1-8.189-2.278s-37.665-28.842-39.094-30.048a26.62,26.62,0,0,1-2.777-2.6c-.506-.546-.917-1.025-1.267-1.463l-.189-.236a9.883,9.883,0,0,1-1.348-2.116.412.412,0,0,0,0-.081,9.025,9.025,0,0,1,.849-9.436c.155-.2.324-.4.5-.593.067-.074.135-.128.2-.2a5.1,5.1,0,0,1,.384-.377c.081-.074.175-.148.263-.216a4.917,4.917,0,0,1,.364-.384l.27-.2.438-.317.256-.175c.168-.1.33-.209.492-.317l.209-.121.573-.337a.749.749,0,0,1,.128-.061,6.392,6.392,0,0,1,.674-.364h.047l.714-.364h0c.674-.324,1.348-.613,1.874-.843h0l.31-.128.115-.047.809-.317h.054l.27-.094h.216a4.852,4.852,0,0,1,.674-.243c10.67-3.99,44.122-16.5,50.4-18.778a122.241,122.241,0,0,1,12.571-3.943c5.338-1.206,10.481-.573,13.4,3.552s.074,10.609.074,10.609m9.12-8.938c-.674-9.207-8.641-13.083-14.99-13.272s-13.912,2.7-13.912,2.7l-9.652,3.491s-48.463,17.72-55.075,20.261c-4.86,1.874-10.07,5.871-11.6,11.364a14.155,14.155,0,0,0,.29,8.446c.047.142.094.283.148.431q.189.506.425,1.031c.047.108.094.222.148.337.216.458.458.93.728,1.4l.169.33a22.687,22.687,0,0,0,4.866,5.77l.094.074a18.779,18.779,0,0,0,1.6,1.348s36.863,28.141,40.549,30.87,10.292,6.484,17.147,4.577a14.961,14.961,0,0,0,9.335-8.324s24.137-52.527,27.312-59.51,2.42-11.324,2.42-11.324" transform="translate(-96.994 -130.162)" fill="#fff"/>
  <path id="Path_2" data-name="Path 2" d="M144.487,183.3a1.955,1.955,0,0,1-.519,1.429,1.719,1.719,0,0,1-1.1.532h-.816v-6.612h.849a1.49,1.49,0,0,1,1.065.438,1.827,1.827,0,0,1,.519,1.18Zm2.211,4.577c-.256,0-.128-.081-.128-.081,4.132-.222,3.876-4.428,3.876-4.428V179.15a6.841,6.841,0,0,0-.762-3.026c-1.3-2.245-5.082-2.164-5.082-2.164H135.63v29.509h6.41V189.732h1.112c1.348.209,1.348,1.833,1.348,1.833v11.91h6.208V192.691c0-4.806-3.781-4.826-4.044-4.826" transform="translate(-109.545 -144.326)" fill="#fff"/>
  <path id="Path_3" data-name="Path 3" d="M76.087,43.963,74.509,61.037h-.047L72.723,43.95H63.88l.013,29.5h5.642v-21.7H69.6l2.784,21.69h4.132l2.865-21.69h.04v21.69H84.97V43.963Z" transform="translate(-20.823 -14.323)" fill="#fff"/>
  <path id="Path_4" data-name="Path 4" d="M97.966,43.957v5.621h4.893L97.38,68.687v4.772h12.254V67.736h-5.379l5.082-18.617V43.95Z" transform="translate(-31.743 -14.323)" fill="#fff"/>
  <path id="Path_5" data-name="Path 5" d="M167.175,225.41H164.3v-1.928a3.465,3.465,0,0,0-.094-1.051.4.4,0,0,0-.411-.216.445.445,0,0,0-.452.256,4.044,4.044,0,0,0-.094,1.092v5.156a3.78,3.78,0,0,0,.094,1.058.418.418,0,0,0,.438.243.4.4,0,0,0,.418-.243,4.044,4.044,0,0,0,.1-1.166v-1.4h2.878v.431a8.257,8.257,0,0,1-.243,2.44,2.46,2.46,0,0,1-1.072,1.267,3.734,3.734,0,0,1-2.056.539,4.253,4.253,0,0,1-2.083-.458,2.265,2.265,0,0,1-1.092-1.267,8.507,8.507,0,0,1-.263-2.447v-3.235a13.482,13.482,0,0,1,.081-1.8,2.6,2.6,0,0,1,.485-1.153,2.743,2.743,0,0,1,1.132-.87,4.663,4.663,0,0,1,3.761.169,2.386,2.386,0,0,1,1.092,1.233,7.353,7.353,0,0,1,.256,2.285Z" transform="translate(-117.607 -159.447)" fill="#fff"/>
  <path id="Path_6" data-name="Path 6" d="M176.086,223.437a3.242,3.242,0,0,0-.088-.984.344.344,0,0,0-.351-.216.384.384,0,0,0-.344.175,2.42,2.42,0,0,0-.121,1.025v5.177a4.631,4.631,0,0,0,.081,1.193.337.337,0,0,0,.364.229.357.357,0,0,0,.371-.263,5.042,5.042,0,0,0,.088-1.24Zm2.878,3.647a18.979,18.979,0,0,1-.074,2.366,2.7,2.7,0,0,1-.492,1.267,2.763,2.763,0,0,1-1.119.89,4.165,4.165,0,0,1-1.645.3,4.307,4.307,0,0,1-1.6-.29,2.675,2.675,0,0,1-1.651-2.137,23.906,23.906,0,0,1-.081-2.4v-1.9a18.8,18.8,0,0,1,.074-2.359,2.7,2.7,0,0,1,1.618-2.157,4.576,4.576,0,0,1,3.242,0,2.575,2.575,0,0,1,1.139.869,2.7,2.7,0,0,1,.519,1.267c.047.458.074,1.254.074,2.393Z" transform="translate(-121.497 -159.455)" fill="#fff"/>
  <path id="Path_7" data-name="Path 7" d="M187.085,222.6v2.467a1.348,1.348,0,0,0,.674-.135c.128-.088.189-.377.189-.863v-.613a.93.93,0,0,0-.182-.674,1.065,1.065,0,0,0-.674-.168m-2.885-1.894h2.022a15.379,15.379,0,0,1,2.757.155,1.948,1.948,0,0,1,1.18.809,3.653,3.653,0,0,1,.452,2.063,3.208,3.208,0,0,1-.324,1.739,1.692,1.692,0,0,1-1.267.532,2.123,2.123,0,0,1,1.153.573,1.631,1.631,0,0,1,.364.674,9.475,9.475,0,0,1,.074,1.638v2.925h-2.7v-3.687a2.635,2.635,0,0,0-.142-1.1c-.094-.142-.337-.209-.735-.209v4.995H184.2Z" transform="translate(-125.378 -159.565)" fill="#fff"/>
  <path id="Path_8" data-name="Path 8" d="M198.708,222.592v2.824h.216a.674.674,0,0,0,.546-.189,1.456,1.456,0,0,0,.155-.816v-.9a1.079,1.079,0,0,0-.175-.741,1.1,1.1,0,0,0-.741-.175M195.83,220.7h2.9a6.874,6.874,0,0,1,1.806.182,2.09,2.09,0,0,1,.957.532,1.793,1.793,0,0,1,.431.849,7.623,7.623,0,0,1,.115,1.537v.964a3.983,3.983,0,0,1-.222,1.55,1.5,1.5,0,0,1-.809.748,3.861,3.861,0,0,1-1.523.249h-.775v4.469H195.83Z" transform="translate(-129.169 -159.561)" fill="#fff"/>
  <path id="Path_9" data-name="Path 9" d="M256.116,132.728h.31c.364,0,.674-.121.674-.418s-.189-.431-.607-.431a1.414,1.414,0,0,0-.364.034Zm0,1.6h-.674v-2.831a5.394,5.394,0,0,1,1.092-.108,1.564,1.564,0,0,1,.991.229.762.762,0,0,1,.283.607.735.735,0,0,1-.593.674v.034a.8.8,0,0,1,.519.674,2.022,2.022,0,0,0,.209.674h-.721a2.184,2.184,0,0,1-.229-.674c-.054-.317-.229-.452-.586-.452h-.317Zm.431-3.754a2.3,2.3,0,1,0,.04,0Zm0-.573a2.865,2.865,0,1,1-2.6,1.389A2.865,2.865,0,0,1,256.547,130Z" transform="translate(-147.982 -129.995)" fill="#fff"/>
  <path id="Path_10" data-name="Path 10" d="M96.93,291.709V281.471h4.84v1.078H98.1v3.235h3.451v1.078H98.1v4.846Zm6.309-10.238h1.153v7.347a2.022,2.022,0,0,0,.526,1.618,2.238,2.238,0,0,0,1.429.411,1.786,1.786,0,0,0,1.49-.559,2.7,2.7,0,0,0,.445-1.685v-7.131h1.207v7.772a4.3,4.3,0,0,1,0,.479,3.551,3.551,0,0,1-.108.532,2.474,2.474,0,0,1-.843,1.146,3.282,3.282,0,0,1-2.022.512c-1.348,0-2.231-.276-2.635-.816a3.829,3.829,0,0,1-.6-2.278Zm7.67,0h6.471v1.193h-2.575v9.045H113.6v-9.045h-2.7Zm8.088,0h1.18v7.347a2.022,2.022,0,0,0,.519,1.618,2.251,2.251,0,0,0,1.429.411,1.793,1.793,0,0,0,1.5-.559,2.7,2.7,0,0,0,.445-1.685v-7.131h1.22v7.772a4.18,4.18,0,0,1,0,.479,2.884,2.884,0,0,1-.115.532,2.427,2.427,0,0,1-.843,1.146,3.249,3.249,0,0,1-2.022.512c-1.348,0-2.231-.276-2.635-.816a3.781,3.781,0,0,1-.607-2.278Zm8.8,10.238V281.471h3.222a1.168,1.168,0,0,1,.216,0,3.761,3.761,0,0,1,1.773.539,2.453,2.453,0,0,1,.957,2.022v.2a2.157,2.157,0,0,1-.506,1.463,2.352,2.352,0,0,1-1.119.762.943.943,0,0,1-.162.04h-.04l.29.047a1.526,1.526,0,0,1,.324.108,1.645,1.645,0,0,1,.532.357,1.3,1.3,0,0,1,.357.755c0,.2.04.438.061.714s.04.559.061.849a12.432,12.432,0,0,0,.216,1.348c.088.425.209.634.364.634h.047v.31h-1.409a2.575,2.575,0,0,1-.236-.863c-.04-.317-.061-.674-.074-1a.128.128,0,0,0,0-.054.127.127,0,0,1,0-.054,7.739,7.739,0,0,0-.256-1.773q-.209-.789-1.348-.789h-2.063v4.529Zm1.186-5.594h1.847a1.86,1.86,0,0,0,1.348-.452,1.651,1.651,0,0,0,.519-1.26v-.27a1.624,1.624,0,0,0-.573-1.247,2.453,2.453,0,0,0-1.463-.364h-1.638Zm7.246,5.594V281.471h5.284v1.078h-4.091v3.235h3.781v1.078h-3.781v3.781h4.037v1.065Zm11.142-5.284v-.236a1.888,1.888,0,0,1,0-.27v-.843a6.258,6.258,0,0,1,.108-.923,4.5,4.5,0,0,1,.876-1.975,2.966,2.966,0,0,1,2.406-.944,2.7,2.7,0,0,1,2.615,1.294,6.983,6.983,0,0,1,.809,2.844c0,.2.034.391.04.586s0,.384,0,.573v1.254a9.192,9.192,0,0,1-.115,1.105,5.028,5.028,0,0,1-.93,2.076,2.817,2.817,0,0,1-2.4.937,2.725,2.725,0,0,1-2.777-1.483,9.793,9.793,0,0,1-.674-4m1.173,0a1.018,1.018,0,0,1,0,.175v.276a7.238,7.238,0,0,0,.034.8,6.194,6.194,0,0,0,.108.977,4.361,4.361,0,0,0,.58,1.6,1.55,1.55,0,0,0,1.436.721h.061a1.665,1.665,0,0,0,1.685-.876,5.029,5.029,0,0,0,.458-1.921v-1.759a10.164,10.164,0,0,0-.364-2.865,1.746,1.746,0,0,0-1.9-1.233,1.618,1.618,0,0,0-1.618,1.011,6.491,6.491,0,0,0-.526,2.224v.863m7.67,5.278V281.471h4.84v1.078H157.3v3.235h3.451v1.078H157.3v4.846Zm10-3.309h1.058a1.093,1.093,0,0,0,0,.148,1.4,1.4,0,0,0,0,.148v.229a1.341,1.341,0,0,1,0,.236,2.865,2.865,0,0,0,.445,1.233q.357.566,1.557.566a1.887,1.887,0,0,0,1.348-.472,1.739,1.739,0,0,0,.512-1.348v-.425a.383.383,0,0,0,0-.121,1.422,1.422,0,0,0-.216-.708,1.348,1.348,0,0,0-.843-.5l-1.031-.357c-.391-.135-.782-.283-1.186-.438l-.074-.034h-.088a2.8,2.8,0,0,1-.8-.512,2.064,2.064,0,0,1-.425-.553,1.867,1.867,0,0,1-.162-.485,2.7,2.7,0,0,1-.04-.452v-.222a.338.338,0,0,0,0-.081.671.671,0,0,1,0-.121V283.7a3.059,3.059,0,0,1,.061-.344,2.588,2.588,0,0,1,2.844-2.022,2.925,2.925,0,0,1,1.907.506,2.608,2.608,0,0,1,.809,1.132,3.431,3.431,0,0,1,.148.674v.58H170.77a1.732,1.732,0,0,0-.492-1.389,1.8,1.8,0,0,0-1.213-.425,1.6,1.6,0,0,0-1.348.539,1.874,1.874,0,0,0-.418,1.18l-.034.081a1.139,1.139,0,0,0,.586,1.065,7.415,7.415,0,0,0,1.348.573l.27.094.29.094a6.268,6.268,0,0,1,1.719.876,2.137,2.137,0,0,1,.782,1.874,2.939,2.939,0,0,1-.869,2.406,3.37,3.37,0,0,1-1.914.782.8.8,0,0,1-.175,0h-.182q-2.17,0-2.649-1.112a6.262,6.262,0,0,1-.472-2.467v-.04Zm8.365,3.316V281.471h3.282a1.731,1.731,0,0,1,.371.04,3.235,3.235,0,0,1,1.658.735,2.7,2.7,0,0,1,.755,2.224,3.471,3.471,0,0,1-.634,2.069,2.48,2.48,0,0,1-2.177.89h-2.062v4.314Zm1.186-5.392H177.3a2.2,2.2,0,0,0,1.456-.411,2.022,2.022,0,0,0,.485-1.557,1.625,1.625,0,0,0-.479-1.287,2.022,2.022,0,0,0-1.348-.411h-1.732Zm5.466,5.392,2.912-10.238h1.624l2.811,10.238h-1.328l-.748-2.892h-3.235l-.748,2.892Zm4.968-3.984-1.294-5.284-1.348,5.284Zm3.316-.971v-.836a6.309,6.309,0,0,1,.04-.87,6.464,6.464,0,0,1,.728-2.669,2.728,2.728,0,0,1,2.561-1.281h.047a3.276,3.276,0,0,1,1.975.708,2.994,2.994,0,0,1,.9,2.514v.236h-1.1V284.1a2.736,2.736,0,0,0-.431-1.308,1.645,1.645,0,0,0-1.49-.593,1.4,1.4,0,0,0-1.348.775,5.043,5.043,0,0,0-.546,1.692,8.219,8.219,0,0,0-.094.9v.89a.513.513,0,0,1,0,.1.29.29,0,0,0,0,.081v.35a10.334,10.334,0,0,0,.33,2.588,1.577,1.577,0,0,0,1.624,1.24,1.429,1.429,0,0,0,1.294-.58,3.256,3.256,0,0,0,.472-1.294,5.341,5.341,0,0,0,.054-.546v-.5h1.207v.377a4.718,4.718,0,0,1-.674,2.514,2.426,2.426,0,0,1-2.258,1.092q-2.184-.081-2.764-1.523a9.861,9.861,0,0,1-.58-3.633m8.048,4.954V281.471h5.278v1.078h-4.091v3.235H202.4v1.078h-3.781v3.781H202.6v1.065Z" transform="translate(-96.93 -179.251)" fill="#fff"/>
  <path id="Path_11" data-name="Path 11" d="M255.36,277.411h.674v2.6h.566v-2.6h.674V277H255.38Zm2.8,1.638c0-.674,0-1.274-.047-1.813h0l.593,2.77h.35l.607-2.77h0c0,.539-.047,1.146-.047,1.813v.957h.566V277h-.9l-.3,1.409a2.066,2.066,0,0,1-.047.283,3.018,3.018,0,0,1-.04.418h0a5.942,5.942,0,0,0-.108-.674l-.29-1.436h-.9v3.04h.566Z" transform="translate(-148.574 -177.915)" fill="#fff"/>
</svg>
