<svg xmlns="http://www.w3.org/2000/svg" width="16.4" height="16.363" viewBox="0 0 16.4 16.363">
  <g id="tag-icon" transform="translate(0.028 0)">
    <path id="Path_116" data-name="Path 116" d="M223.317,153.244a.554.554,0,0,0-.461-.244.578.578,0,0,0-.113.011.618.618,0,0,0-.318.187l-1.576,1.557-1.008,1-.006.011a.77.77,0,0,0-.081.09.545.545,0,0,0,.439.873h.011a.588.588,0,0,0,.419-.194c.562-.558,1.138-1.124,1.689-1.671l.907-.894a.765.765,0,0,0,.091-.1A.536.536,0,0,0,223.317,153.244Z" transform="translate(-207.04 -153)" fill="#78909c"/>
    <path id="Path_117" data-name="Path 117" d="M80.094,159.444a.8.8,0,0,0-.227-.376c-.064-.059-.125-.122-.19-.188l-.086-.088-.152-.151-1.13,1.13a1.226,1.226,0,0,1-1.24,1.2h-.017a1.234,1.234,0,0,1,0-2.468l.719-.721.077-.081.331-.33-.015-.015c-.043-.044-.088-.087-.13-.129-.092-.091-.187-.184-.275-.279a.847.847,0,0,0-.406-.244c-.086-.022-.163-.04-.237-.053a8.5,8.5,0,0,0-1.463-.127h-.367c-.4,0-.789.008-1.166.024-.265.011-.528.047-.783.081l-.179.024a1.219,1.219,0,0,0-.731.37c-1.407,1.416-2.844,2.85-4.23,4.237l-1.215,1.215-.65.65c-.573.569-1.166,1.165-1.748,1.75a1.219,1.219,0,0,0-.007,1.739c.025.027.05.052.076.076l.025.026,5.469,5.468.019.02.081.081a1.2,1.2,0,0,0,.808.315,1.382,1.382,0,0,0,.255-.024,1.27,1.27,0,0,0,.669-.38c2.341-2.343,5.1-5.108,7.85-7.847a1.031,1.031,0,0,0,.293-.529.257.257,0,0,1,.008-.041c.008-.037.016-.074.024-.113a9.563,9.563,0,0,0,.128-1.463,15.239,15.239,0,0,0-.063-2.032A4.094,4.094,0,0,0,80.094,159.444Z" transform="translate(-64.24 -156.243)" fill="#78909c"/>
  </g>
</svg>
