<svg xmlns="http://www.w3.org/2000/svg" width="34.12" height="34.157" viewBox="0 0 34.12 34.157">
  <g id="user-icon" transform="translate(0.057 0.139)">
    <path id="Path_118" data-name="Path 118" d="M176.812,260.866a6.208,6.208,0,1,1-1.817-4.4A6.216,6.216,0,0,1,176.812,260.866Z" transform="translate(-153.569 -248.958)" fill="#fff"/>
    <path id="Path_119" data-name="Path 119" d="M168.6,249.784a17.066,17.066,0,1,0-27.788,18.682h0l.034.034h0a17.055,17.055,0,0,0,24.031.03h0l.061-.061h0a17.078,17.078,0,0,0,3.631-18.682Zm-2.08,12.4a14.736,14.736,0,0,1-2.456,3.939,11.31,11.31,0,0,0-5.729-8.3,8.478,8.478,0,0,1-9.478.973,8.337,8.337,0,0,1-1.433-.973,11.307,11.307,0,0,0-5.733,8.3,14.8,14.8,0,1,1,24.83-3.939Z" transform="translate(-135.85 -239.45)" fill="#fff"/>
  </g>
</svg>
