<svg xmlns="http://www.w3.org/2000/svg" width="13.096" height="17.796" viewBox="0 0 13.096 17.796">
  <path id="password-icon" d="M165.11,280.735v-1.753A4.982,4.982,0,0,0,160.128,274h0a4.982,4.982,0,0,0-4.982,4.982v1.753a2.67,2.67,0,0,0-1.566,2.432v5.958a2.673,2.673,0,0,0,2.67,2.67h7.756a2.667,2.667,0,0,0,2.67-2.67v-5.958A2.67,2.67,0,0,0,165.11,280.735Zm-3.964,4.795a.783.783,0,0,0-.1.369v1.04a.92.92,0,0,1-.92.92h0a.92.92,0,0,1-.92-.92V285.9a.784.784,0,0,0-.1-.369,1.152,1.152,0,1,1,2.035,0ZM163.4,280.5h-6.537v-1.515a3.268,3.268,0,0,1,6.537,0Z" transform="translate(-153.58 -274)" fill="#fff"/>
</svg>
