<svg xmlns="http://www.w3.org/2000/svg" width="14.678" height="15.287" viewBox="0 0 14.678 15.287">
  <path id="phone-icon" d="M152.373,291.023a10.471,10.471,0,0,1,3.361,1.522.887.887,0,0,1,.39.714,3.781,3.781,0,0,1,0,.5c-.582,1.213-1.12,2.19-2.585,2.506-4.83,1.042-13.313-8.053-11.936-12.8.416-1.439,1.43-1.908,2.68-2.4a3.834,3.834,0,0,1,.5.037.891.891,0,0,1,.693.439A10.509,10.509,0,0,1,146.76,285a.91.91,0,0,1-.6,1.037l-.377.129a.91.91,0,0,0-.49,1.324,13.4,13.4,0,0,0,4.5,4.826.924.924,0,0,0,1.356-.4l.155-.367a.908.908,0,0,1,1.077-.524Z" transform="translate(-141.454 -281.06)" fill="#fff"/>
</svg>
