<svg id="user-2-icon" xmlns="http://www.w3.org/2000/svg" width="12.163" height="15.667" viewBox="0 0 12.163 15.667">
  <path id="Path_120" data-name="Path 120" d="M150.184,270.773v-.029a4.268,4.268,0,0,1,2.447-4.542,6.025,6.025,0,0,1,.624-.252,5.972,5.972,0,0,0,5.9,0,6.412,6.412,0,0,1,.635.252,4.263,4.263,0,0,1,2.451,4.544v.029l-.056.058a8.448,8.448,0,0,1-11.941,0l-.058-.058Z" transform="translate(-150.133 -257.638)" fill="#fff"/>
  <path id="Path_121" data-name="Path 121" d="M164.3,226a3.953,3.953,0,1,1-3.953,3.953A3.953,3.953,0,0,1,164.3,226Z" transform="translate(-158.224 -226)" fill="#fff"/>
</svg>
