<svg xmlns="http://www.w3.org/2000/svg" width="21.088" height="18.586" viewBox="0 0 21.088 18.586">
  <path id="building-icon" d="M115.6,224.334V212.018h-2.053v-.741h-4.277v3.078h1.288v1.916h-1.288v.948h1.288v1.914h-1.288v.948h1.288V222h-1.288v2.338h-.4v-16.59h-2.163V207h-5.833v.741H98.717v16.59H96.61v1.255H117.7v-1.255Zm-2-4.253V222h-1.914v-1.914Zm-1.914-.948v-1.914H113.6v1.914Zm1.914-4.778v1.916h-1.914v-1.916Zm-6.15,4.5v2.818h-2.823V218.85Zm-2.823-1.4v-2.827h2.823v2.823Zm2.823-7.042v2.822h-2.823v-2.826Zm-7.306,0h2.823v2.822h-2.823Zm0,4.213h2.823v2.823h-2.823Zm0,4.22h2.823v2.823h-2.823Z" transform="translate(-96.61 -207)" fill="#3d3dd9"/>
</svg>
