<svg id="email-icon" xmlns="http://www.w3.org/2000/svg" width="15.063" height="11.319" viewBox="0 0 15.063 11.319">
  <path id="Path_101" data-name="Path 101" d="M76.4,193.468l6.287-4.725a3.025,3.025,0,0,0-1.8-.593H71.91a3.024,3.024,0,0,0-1.8.6Z" transform="translate(-68.865 -188.15)" fill="#fff"/>
  <path id="Path_102" data-name="Path 102" d="M57.091,220.485l-7.18-5.4a3.023,3.023,0,0,0-.351,1.415v5.227a3.054,3.054,0,0,0,3.045,3.045h8.972a3.054,3.054,0,0,0,3.045-3.045v-5.227a3.016,3.016,0,0,0-.351-1.415Z" transform="translate(-49.56 -213.458)" fill="#fff"/>
</svg>
