<svg xmlns="http://www.w3.org/2000/svg" width="22.063" height="16.579" viewBox="0 0 22.063 16.579">
  <g id="email-icon" transform="translate(0 0.03)">
    <path id="Path_101" data-name="Path 101" d="M79.318,195.94l9.208-6.921a4.431,4.431,0,0,0-2.637-.869H72.747a4.43,4.43,0,0,0-2.637.874Z" transform="translate(-68.287 -188.18)" fill="#fff"/>
    <path id="Path_102" data-name="Path 102" d="M60.591,222.992l-10.517-7.9a4.429,4.429,0,0,0-.514,2.073v7.656a4.474,4.474,0,0,0,4.46,4.46H67.162a4.474,4.474,0,0,0,4.461-4.46v-7.656a4.418,4.418,0,0,0-.515-2.073Z" transform="translate(-49.56 -212.73)" fill="#fff"/>
  </g>
</svg>
