<svg xmlns="http://www.w3.org/2000/svg" width="21.5" height="22.391" viewBox="0 0 21.5 22.391">
  <path id="phone-icon" d="M157.447,295.653a15.338,15.338,0,0,1,4.923,2.23,1.3,1.3,0,0,1,.572,1.046,5.557,5.557,0,0,1,0,.731c-.853,1.776-1.641,3.208-3.786,3.671-7.075,1.526-19.5-11.8-17.483-18.749.609-2.108,2.094-2.795,3.925-3.522a5.631,5.631,0,0,1,.731.054,1.306,1.306,0,0,1,1.015.643,15.393,15.393,0,0,1,1.881,5.075,1.333,1.333,0,0,1-.88,1.519l-.552.189a1.333,1.333,0,0,0-.717,1.939,19.627,19.627,0,0,0,6.591,7.068,1.353,1.353,0,0,0,1.986-.582l.227-.538a1.33,1.33,0,0,1,1.577-.768Z" transform="translate(-141.454 -281.06)" fill="#fff"/>
</svg>
