<svg xmlns="http://www.w3.org/2000/svg" xmlns:xlink="http://www.w3.org/1999/xlink" width="340" height="204.667" viewBox="0 0 340 204.667">
  <defs>
    <clipPath id="clip-path">
      <rect id="Rectangle_141" data-name="Rectangle 141" width="340" height="204.667" fill="#2e2e80"/>
    </clipPath>
  </defs>
  <g id="Mask_Group_21" data-name="Mask Group 21" opacity="0.8" clip-path="url(#clip-path)">
    <g id="Group_48" data-name="Group 48" transform="translate(98 -15.019)">
      <path id="logo-form" d="M46.319,247.517c1.149-17.991,15.528-25.563,26.992-25.949s25.036,5.213,25.036,5.213l17.389,6.822s87.235,34.625,99.157,39.578c8.724,3.668,18.13,11.476,20.886,22.2a29.84,29.84,0,0,1-.516,16.508l-.269.789c-.233.662-.487,1.341-.727,2.027l-.269.647c-.385.907-.821,1.822-1.3,2.753-.116.213-.218.426-.313.639a43.342,43.342,0,0,1-8.723,11.271l-.174.15c-1.7,1.7-2.864,2.658-2.864,2.658S154.236,387.8,147.6,393.132s-18.523,12.667-30.874,8.936-16.807-16.256-16.807-16.256S56.46,283.2,50.739,269.554s-4.362-22.084-4.362-22.084" transform="translate(49.781 -221.549)" fill="#3d3dd9" opacity="0.4"/>
      <path id="logo-form-2" data-name="logo-form" d="M124.938,113.488c-.754,13.124-10.19,18.648-17.714,18.93s-16.43-3.8-16.43-3.8l-11.411-4.977S22.135,98.379,14.311,94.765C8.586,92.09,2.413,86.394.6,78.568A24.1,24.1,0,0,1,.943,66.526l.177-.575c.153-.483.32-.978.477-1.479L1.773,64c.253-.662.539-1.329.854-2.008.076-.155.143-.311.205-.466A31.43,31.43,0,0,1,8.557,53.3l.115-.109c1.116-1.243,1.88-1.939,1.88-1.939s43.566-40.1,47.921-43.994S70.629-1.979,78.734.742,89.764,12.6,89.764,12.6s28.519,74.857,32.274,84.811,2.862,16.111,2.862,16.111" transform="matrix(0.999, -0.035, 0.035, 0.999, 0, 34.958)" fill="#3d3dd9" opacity="0.3"/>
      <path id="logo-form-3" data-name="logo-form" d="M88.545,13.573C88.011,4.169,81.323.212,75.991.01S64.347,2.735,64.347,2.735L56.26,6.3S15.687,24.4,10.142,26.987c-4.057,1.917-8.432,6-9.714,11.6a17.45,17.45,0,0,0,.24,8.628l.125.412c.108.346.227.7.338,1.059l.125.338c.179.474.382.952.605,1.439.054.111.1.223.145.334a22.524,22.524,0,0,0,4.057,5.891l.081.078c.791.89,1.332,1.389,1.332,1.389S38.354,86.893,41.441,89.68,50.055,96.3,55.8,94.35s7.817-8.5,7.817-8.5S83.829,32.222,86.49,25.09s2.029-11.543,2.029-11.543" transform="translate(70.546 222.495) rotate(-47)" fill="#3d3dd9" opacity="0.2"/>
    </g>
  </g>
</svg>
