<svg xmlns="http://www.w3.org/2000/svg" xmlns:xlink="http://www.w3.org/1999/xlink" width="536" height="173" viewBox="0 0 536 173">
  <defs>
    <clipPath id="clip-path">
      <rect id="Rectangle_78" data-name="Rectangle 78" width="536" height="173" fill="#2e2e80"/>
    </clipPath>
  </defs>
  <g id="Mask_Group_18" data-name="Mask Group 18" opacity="0.2" clip-path="url(#clip-path)">
    <g id="Group_27" data-name="Group 27" transform="translate(287.495 -17.384)">
      <path id="logo-form" d="M46.328,250.474c1.279-20.039,17.3-28.473,30.065-28.9s27.887,5.807,27.887,5.807l19.368,7.6s97.166,38.567,110.446,44.084c9.717,4.085,20.194,12.782,23.263,24.73a33.236,33.236,0,0,1-.575,18.387l-.3.879c-.259.738-.542,1.493-.81,2.258l-.3.72c-.429,1.01-.915,2.029-1.449,3.066-.13.237-.243.474-.348.712a48.277,48.277,0,0,1-9.717,12.554l-.194.167c-1.895,1.9-3.19,2.961-3.19,2.961s-73.944,61.233-81.336,67.171-20.632,14.109-34.389,9.954-18.721-18.106-18.721-18.106-48.4-114.295-54.777-129.493-4.858-24.6-4.858-24.6" transform="translate(60.712 -221.549)" fill="#3d3dd9" opacity="0.3"/>
      <path id="logo-form-2" data-name="logo-form" d="M139.161,126.408c-.84,14.619-11.35,20.771-19.73,21.085s-18.3-4.236-18.3-4.236L88.42,137.713s-63.765-28.135-72.48-32.16C9.563,102.574,2.687,96.229.673,87.513A26.845,26.845,0,0,1,1.051,74.1l.2-.641c.17-.538.356-1.09.531-1.647l.2-.526c.282-.737.6-1.48.951-2.237.085-.173.159-.346.228-.519a35.008,35.008,0,0,1,6.377-9.158l.128-.122c1.243-1.384,2.094-2.16,2.094-2.16s48.526-44.67,53.377-49S78.669-2.2,87.7.827,99.983,14.036,99.983,14.036s31.766,83.379,35.948,94.466,3.188,17.945,3.188,17.945" transform="matrix(0.999, -0.035, 0.035, 0.999, 0, 38.937)" fill="#3d3dd9" opacity="0.3"/>
      <path id="logo-form-3" data-name="logo-form" d="M98.625,15.118C98.03,4.644,90.581.236,84.642.011s-12.97,3.035-12.97,3.035L62.664,7.018S17.473,27.175,11.3,30.059C6.778,32.194,1.9,36.74.477,42.985a19.437,19.437,0,0,0,.267,9.61l.139.459c.121.386.252.781.377,1.18l.139.377c.2.528.426,1.061.674,1.6.06.124.113.248.162.372a25.088,25.088,0,0,0,4.519,6.561l.09.087c.881.992,1.484,1.547,1.484,1.547s34.391,32,37.829,35.108,9.6,7.374,15.994,5.2,8.707-9.463,8.707-9.463S93.372,35.89,96.336,27.947,98.6,15.09,98.6,15.09" transform="translate(78.577 247.824) rotate(-47)" fill="#3d3dd9" opacity="0.3"/>
    </g>
  </g>
</svg>
