<svg xmlns="http://www.w3.org/2000/svg" width="72.215" height="60.464" viewBox="0 0 72.215 60.464">
  <g id="rmz-logo" transform="translate(-0.079 0)">
    <path id="Path_1" data-name="Path 1" d="M159.772,144.835s-15.358,33.463-16.6,36.053-2.472,4.285-5.643,4.53a8.041,8.041,0,0,1-5.307-1.476s-24.408-18.69-25.334-19.472a17.251,17.251,0,0,1-1.8-1.686c-.328-.354-.594-.664-.821-.948l-.122-.153a6.4,6.4,0,0,1-.874-1.372.268.268,0,0,0,0-.052,5.849,5.849,0,0,1,.55-6.115c.1-.131.21-.262.323-.384.044-.048.087-.083.131-.127a3.3,3.3,0,0,1,.249-.245c.052-.048.114-.1.17-.14a3.186,3.186,0,0,1,.236-.249l.175-.131.284-.205.166-.114c.109-.065.214-.135.319-.205l.135-.079.371-.218a.485.485,0,0,1,.083-.039,4.143,4.143,0,0,1,.437-.236h.031l.463-.236h0c.437-.21.874-.4,1.214-.546h0l.2-.083.074-.031.524-.205h.035l.175-.061h.14a3.144,3.144,0,0,1,.437-.157c6.914-2.586,28.592-10.693,32.663-12.169a79.217,79.217,0,0,1,8.146-2.555c3.459-.782,6.792-.371,8.683,2.3s.048,6.875.048,6.875m5.91-5.792c-.437-5.967-5.6-8.478-9.714-8.6a27.993,27.993,0,0,0-9.015,1.747l-6.255,2.263s-31.405,11.483-35.69,13.13c-3.149,1.214-6.526,3.8-7.517,7.364a9.173,9.173,0,0,0,.188,5.473c.031.092.061.183.1.28q.122.328.275.668c.031.07.061.144.1.218.14.3.3.6.472.909l.109.214a14.7,14.7,0,0,0,3.154,3.739l.061.048a12.171,12.171,0,0,0,1.035.874s23.888,18.236,26.277,20.005,6.67,4.2,11.112,2.966a9.7,9.7,0,0,0,6.05-5.394s15.642-34.039,17.7-38.564,1.568-7.338,1.568-7.338" transform="translate(-97.047 -130.283)" fill="#fff"/>
    <path id="Path_2" data-name="Path 2" d="M141.369,180.009a1.267,1.267,0,0,1-.336.926,1.114,1.114,0,0,1-.712.345h-.529V177h.55a.965.965,0,0,1,.69.284,1.184,1.184,0,0,1,.336.764Zm1.433,2.966c-.166,0-.083-.052-.083-.052a2.638,2.638,0,0,0,2.512-2.87v-2.73a4.433,4.433,0,0,0-.494-1.961c-.843-1.455-3.293-1.4-3.293-1.4H135.63v19.123h4.154v-8.9h.721c.874.135.874,1.188.874,1.188v7.718H145.4V186.1c0-3.114-2.45-3.127-2.621-3.127" transform="translate(-118.733 -154.756)" fill="#fff"/>
    <path id="Path_3" data-name="Path 3" d="M71.79,43.959,70.768,55.023h-.031L69.611,43.95H63.88l.009,19.118h3.656V49h.039l1.8,14.056h2.678L73.922,49h.026V63.06h3.6v-19.1Z" transform="translate(-35.984 -24.751)" fill="#fff"/>
    <path id="Path_4" data-name="Path 4" d="M97.76,43.954V47.6h3.171L97.38,59.98v3.093h7.941V59.364h-3.486L105.129,47.3V43.95Z" transform="translate(-54.852 -24.751)" fill="#fff"/>
    <path id="Path_5" data-name="Path 5" d="M164.776,223.627h-1.865v-1.249a2.246,2.246,0,0,0-.061-.681.258.258,0,0,0-.266-.14.288.288,0,0,0-.293.166,2.62,2.62,0,0,0-.061.708v3.341a2.45,2.45,0,0,0,.061.686.271.271,0,0,0,.284.157.262.262,0,0,0,.271-.157,2.621,2.621,0,0,0,.066-.756v-.9h1.865v.28a5.351,5.351,0,0,1-.157,1.581,1.594,1.594,0,0,1-.694.821,2.42,2.42,0,0,1-1.332.349,2.756,2.756,0,0,1-1.35-.3,1.468,1.468,0,0,1-.708-.821,5.514,5.514,0,0,1-.17-1.586v-2.1a8.74,8.74,0,0,1,.052-1.166,1.686,1.686,0,0,1,.314-.747,1.778,1.778,0,0,1,.734-.563,3.022,3.022,0,0,1,2.437.109,1.546,1.546,0,0,1,.708.8,4.766,4.766,0,0,1,.166,1.481Z" transform="translate(-132.661 -180.881)" fill="#fff"/>
    <path id="Path_6" data-name="Path 6" d="M174.752,222.357a2.1,2.1,0,0,0-.057-.638.223.223,0,0,0-.227-.14.249.249,0,0,0-.223.114,1.569,1.569,0,0,0-.079.664v3.355a3,3,0,0,0,.052.773.218.218,0,0,0,.236.149.232.232,0,0,0,.24-.17,3.267,3.267,0,0,0,.057-.8Zm1.865,2.363a12.3,12.3,0,0,1-.048,1.533,1.747,1.747,0,0,1-.319.821,1.791,1.791,0,0,1-.725.577,2.7,2.7,0,0,1-1.066.2,2.791,2.791,0,0,1-1.04-.188,1.734,1.734,0,0,1-1.07-1.385,15.49,15.49,0,0,1-.052-1.555v-1.232a12.182,12.182,0,0,1,.048-1.529,1.747,1.747,0,0,1,1.048-1.4,2.965,2.965,0,0,1,2.1,0,1.669,1.669,0,0,1,.738.563,1.748,1.748,0,0,1,.336.821c.031.3.048.812.048,1.551Z" transform="translate(-139.383 -180.895)" fill="#fff"/>
    <path id="Path_7" data-name="Path 7" d="M186.069,221.931v1.6a.874.874,0,0,0,.437-.087c.083-.057.122-.245.122-.559v-.4a.6.6,0,0,0-.118-.437.69.69,0,0,0-.437-.109m-1.869-1.227h1.31a9.966,9.966,0,0,1,1.786.1,1.262,1.262,0,0,1,.764.524,2.367,2.367,0,0,1,.293,1.337,2.079,2.079,0,0,1-.21,1.127,1.1,1.1,0,0,1-.821.345,1.376,1.376,0,0,1,.747.371,1.057,1.057,0,0,1,.236.437,6.138,6.138,0,0,1,.048,1.061v1.9h-1.747v-2.389a1.708,1.708,0,0,0-.092-.712c-.061-.092-.218-.135-.476-.135v3.237H184.2Z" transform="translate(-146.088 -181.085)" fill="#fff"/>
    <path id="Path_8" data-name="Path 8" d="M197.7,221.924v1.83h.14a.437.437,0,0,0,.354-.122.943.943,0,0,0,.1-.529v-.585a.7.7,0,0,0-.114-.48.712.712,0,0,0-.48-.114M195.83,220.7h1.878a4.455,4.455,0,0,1,1.171.118,1.354,1.354,0,0,1,.62.345,1.162,1.162,0,0,1,.28.55,4.939,4.939,0,0,1,.074,1v.625a2.581,2.581,0,0,1-.144,1,.974.974,0,0,1-.524.485,2.5,2.5,0,0,1-.987.162h-.5v2.9H195.83Z" transform="translate(-152.638 -181.078)" fill="#fff"/>
    <path id="Path_9" data-name="Path 9" d="M255.211,131.766h.2c.236,0,.437-.079.437-.271s-.122-.28-.393-.28a.916.916,0,0,0-.236.022Zm0,1.035h-.437v-1.835a3.493,3.493,0,0,1,.708-.07,1.013,1.013,0,0,1,.642.149.494.494,0,0,1,.183.393.476.476,0,0,1-.384.437v.022a.515.515,0,0,1,.336.437,1.31,1.31,0,0,0,.135.437h-.467a1.416,1.416,0,0,1-.149-.437c-.035-.205-.148-.293-.38-.293h-.205Zm.28-2.433a1.488,1.488,0,1,0,.026,0Zm0-.371a1.856,1.856,0,1,1-1.683.9A1.856,1.856,0,0,1,255.49,130Z" transform="translate(-185.142 -129.995)" fill="#fff"/>
  </g>
</svg>
