<svg xmlns="http://www.w3.org/2000/svg" width="26.327" height="26.498" viewBox="0 0 26.327 26.498">
  <path id="share-icon" d="M126.505,184.128a4.133,4.133,0,0,1-8.267,0c0-.084.02-.158.025-.244a9.085,9.085,0,0,0-1.214-.088,9.4,9.4,0,0,0-7.791,4.154,5.886,5.886,0,0,0-2.253-.651,11.657,11.657,0,0,1,10.048-5.77,11.457,11.457,0,0,1,1.986.178,4.124,4.124,0,0,1,7.47,2.421ZM117,204.858a5.884,5.884,0,0,1-.548-2.292,9.4,9.4,0,0,1-8.034-5.715,4.135,4.135,0,1,0-2.259.441A11.657,11.657,0,0,0,117,204.858Zm11.72-11.657a11.578,11.578,0,0,0-1.478-5.671,5.976,5.976,0,0,1-1.715,1.622,9.3,9.3,0,0,1-.985,9.7,4.2,4.2,0,1,0,1.531,1.693,11.564,11.564,0,0,0,2.646-7.352Z" transform="translate(-102.388 -179.993)" fill="#3d3dd9"/>
</svg>
