<svg xmlns="http://www.w3.org/2000/svg" width="16" height="16" viewBox="0 0 16 16">
  <g id="web-icon" transform="translate(-0.04 0)">
    <path id="Path_23" data-name="Path 23" d="M165.389,246.627c-.028-.836-.453-4.447-1.649-4.447s-1.621,3.613-1.649,4.447Z" transform="translate(-155.704 -239.075)" fill="#3d3dd9"/>
    <path id="Path_24" data-name="Path 24" d="M125.25,303.22a4.9,4.9,0,0,0,3.3,4.189,9.47,9.47,0,0,1-.974-4.189Z" transform="translate(-122.087 -294.774)" fill="#3d3dd9"/>
    <path id="Path_25" data-name="Path 25" d="M202.165,249.3a4.9,4.9,0,0,0-3.3-4.19,9.486,9.486,0,0,1,.975,4.19Z" transform="translate(-189.256 -241.748)" fill="#3d3dd9"/>
    <path id="Path_26" data-name="Path 26" d="M128.553,245.13a4.9,4.9,0,0,0-3.3,4.189h2.331A9.494,9.494,0,0,1,128.553,245.13Z" transform="translate(-122.087 -241.767)" fill="#3d3dd9"/>
    <path id="Path_27" data-name="Path 27" d="M162.09,303.22c.028.836.454,4.446,1.649,4.446s1.621-3.61,1.649-4.446Z" transform="translate(-155.704 -294.774)" fill="#3d3dd9"/>
    <path id="Path_28" data-name="Path 28" d="M97.561,206.69a8,8,0,1,0,8,8A8,8,0,0,0,97.561,206.69Zm0,13.785a5.785,5.785,0,1,1,5.785-5.785,5.785,5.785,0,0,1-5.785,5.785Z" transform="translate(-89.52 -206.69)" fill="#3d3dd9"/>
    <path id="Path_29" data-name="Path 29" d="M198.86,307.409a4.9,4.9,0,0,0,3.3-4.189h-2.33A9.485,9.485,0,0,1,198.86,307.409Z" transform="translate(-189.256 -294.774)" fill="#3d3dd9"/>
  </g>
</svg>
