<svg xmlns="http://www.w3.org/2000/svg" width="21.274" height="21.274" viewBox="0 0 21.274 21.274">
  <g id="web-icon" transform="translate(0)">
    <path id="Path_23" data-name="Path 23" d="M166.476,248.092c-.037-1.111-.6-5.912-2.193-5.912s-2.156,4.8-2.193,5.912Z" transform="translate(-153.652 -238.051)" fill="#3d3dd9"/>
    <path id="Path_24" data-name="Path 24" d="M125.25,303.22a6.515,6.515,0,0,0,4.392,5.57,12.591,12.591,0,0,1-1.295-5.57Z" transform="translate(-121.098 -291.99)" fill="#3d3dd9"/>
    <path id="Path_25" data-name="Path 25" d="M203.254,250.682a6.515,6.515,0,0,0-4.394-5.572,12.613,12.613,0,0,1,1.3,5.572Z" transform="translate(-186.144 -240.64)" fill="#3d3dd9"/>
    <path id="Path_26" data-name="Path 26" d="M129.642,245.13a6.515,6.515,0,0,0-4.392,5.569h3.1A12.624,12.624,0,0,1,129.642,245.13Z" transform="translate(-121.098 -240.658)" fill="#3d3dd9"/>
    <path id="Path_27" data-name="Path 27" d="M162.09,303.22c.037,1.111.6,5.911,2.193,5.911s2.156-4.8,2.193-5.911Z" transform="translate(-153.652 -291.99)" fill="#3d3dd9"/>
    <path id="Path_28" data-name="Path 28" d="M100.2,206.69a10.637,10.637,0,1,0,10.636,10.637A10.637,10.637,0,0,0,100.2,206.69Zm0,18.329a7.7,7.7,0,1,0-.006,0Z" transform="translate(-89.56 -206.69)" fill="#3d3dd9"/>
    <path id="Path_29" data-name="Path 29" d="M198.86,308.79a6.515,6.515,0,0,0,4.394-5.57h-3.1A12.612,12.612,0,0,1,198.86,308.79Z" transform="translate(-186.144 -291.99)" fill="#3d3dd9"/>
  </g>
</svg>
